<svg width="51" height="93" viewBox="0 0 51 93" fill="none" xmlns="http://www.w3.org/2000/svg">
<g id="&#231;&#187;&#132; 29090">
<path id="&#232;&#183;&#175;&#229;&#190;&#132; 57533" d="M18.8486 83.199C18.8563 82.6963 19.0594 82.2164 19.4149 81.8609C19.7704 81.5054 20.2503 81.3023 20.753 81.2946H29.9498C30.4645 81.2946 30.9581 81.4991 31.322 81.863C31.686 82.227 31.8904 82.7206 31.8904 83.2353C31.8904 83.75 31.686 84.2436 31.322 84.6075C30.9581 84.9714 30.4645 85.1759 29.9498 85.1759H20.7244C20.2227 85.1584 19.7472 84.9471 19.3979 84.5865C19.0485 84.2258 18.8526 83.7439 18.851 83.2418L18.8486 83.199Z" fill="#0AE5D5"/>
<path id="&#232;&#129;&#148;&#229;&#144;&#136; 31" d="M23.5603 64.807C22.7211 64.8337 21.9041 64.5362 21.2798 63.9748C20.9869 63.7092 20.754 63.383 20.5987 63.0193C20.4434 62.6557 20.3695 62.2639 20.3802 61.8686V40.1077C20.3742 39.6647 20.4703 39.2264 20.6614 38.8268C20.8526 38.4271 21.1334 38.0773 21.482 37.8039C22.1799 37.1946 23.0779 36.8634 24.0043 36.8741H26.9891C27.9715 36.8543 28.9311 37.1726 29.7066 37.776C30.0714 38.0442 30.3657 38.3955 30.5667 38.8012C30.7678 39.2069 30.8695 39.655 30.862 40.1077V61.6687C30.866 62.0781 30.7876 62.485 30.6318 62.8636C30.4761 63.2422 30.2463 63.5844 29.9554 63.8725C29.6758 64.1702 29.3362 64.4075 28.9604 64.5676C28.5847 64.7276 28.1809 64.807 27.7725 64.8023L23.5603 64.807ZM10.791 64.807C9.9514 64.8366 9.1333 64.5387 8.51053 63.9748C8.21542 63.7106 7.98139 63.3855 7.82476 63.0217C7.66814 62.6578 7.59069 62.2646 7.6016 61.8686V48.1811C7.59656 47.7384 7.69366 47.2995 7.8852 46.9003C8.07675 46.5011 8.35961 46.1505 8.70813 45.8774C9.40602 45.2682 10.304 44.9393 11.2304 44.9499H14.2152C15.1986 44.9286 16.1592 45.2488 16.9327 45.8565C17.297 46.1235 17.5918 46.4726 17.7928 46.877C17.9939 47.2814 18.095 47.7295 18.0881 48.1811V61.6734C18.092 62.0828 18.0137 62.4873 17.8579 62.8659C17.7021 63.2445 17.4724 63.5891 17.1815 63.8771C16.9017 64.1746 16.5622 64.4099 16.1865 64.5699C15.8108 64.7299 15.407 64.8115 14.9986 64.807H10.791ZM36.2063 64.7837C35.7473 64.7993 35.2896 64.7241 34.8604 64.5606C34.4312 64.3971 34.0397 64.1477 33.7073 63.8306C33.3927 63.5319 33.1427 63.1708 32.9751 62.7706C32.8075 62.3704 32.7254 61.9398 32.7333 61.506V28.0497C32.7176 27.5618 32.8351 27.079 33.0727 26.6526C33.2937 26.2866 33.5961 25.9744 33.9561 25.7437C34.3324 25.5129 34.7464 25.3514 35.1788 25.2625C35.6285 25.1642 36.0854 25.1112 36.5457 25.1091H39.9746C40.8006 25.1022 41.5985 25.4099 42.2086 25.9668C42.5335 26.2788 42.7881 26.6563 42.9524 27.0757C43.1168 27.4951 43.188 27.9464 43.1617 28.3961V61.8942C43.1571 62.6309 42.8766 63.3391 42.3759 63.8795C42.1156 64.1793 41.7922 64.4152 41.4275 64.5722C41.0627 64.7292 40.6666 64.8031 40.2698 64.7861L36.2063 64.7837Z" fill="url(#paint0_linear_1079_3610)"/>
<path id="&#232;&#183;&#175;&#229;&#190;&#132; 57537" d="M11.3417 92.5906C8.48448 92.5872 5.74533 91.4505 3.72511 89.4301C1.70489 87.4096 0.568579 84.6704 0.56543 81.8132V11.5487C0.568579 8.69154 1.70489 5.95227 3.72511 3.93183C5.74533 1.91139 8.48448 0.774767 11.3417 0.771301H39.3915C42.2488 0.774766 44.9881 1.91135 47.0085 3.93175C49.0289 5.95216 50.1655 8.69143 50.1689 11.5487V81.8132C50.1655 84.6705 49.0289 87.4097 47.0085 89.4302C44.9881 91.4506 42.2488 92.5872 39.3915 92.5906H11.3417ZM11.3417 4.7371C9.53589 4.7393 7.80474 5.4577 6.52798 6.73468C5.25122 8.01166 4.53312 9.74295 4.53123 11.5487V81.8025C4.53281 83.6086 5.25073 85.3403 6.52749 86.6177C7.80424 87.8951 9.53558 88.614 11.3417 88.6165H39.4022C41.1557 88.6143 42.841 87.9371 44.1082 86.7252C45.3755 85.5133 46.1274 83.86 46.2079 82.1084V11.5392C46.2054 9.73311 45.4865 8.00178 44.2091 6.72502C42.9317 5.44826 41.2 4.73034 39.3939 4.72877H34.1569V5.5893C34.1566 6.16551 33.9277 6.71807 33.5205 7.12573C33.1133 7.5334 32.561 7.76288 31.9848 7.76383H18.7484C18.1723 7.76257 17.6201 7.53299 17.213 7.12539C16.8058 6.71779 16.5769 6.16541 16.5762 5.5893V4.7371H11.3417Z" fill="#0AE5D5"/>
</g>
<defs>
<linearGradient id="paint0_linear_1079_3610" x1="25.3838" y1="39.1628" x2="25.3838" y2="118.96" gradientUnits="userSpaceOnUse">
<stop stop-color="#0AE5D5" stop-opacity="0.098"/>
<stop offset="1" stop-color="#0AE5D5"/>
</linearGradient>
</defs>
</svg>
