<svg width="88" height="93" viewBox="0 0 88 93" fill="none" xmlns="http://www.w3.org/2000/svg">
<g id="&#231;&#187;&#132; 29114">
<path id="&#230;&#164;&#173;&#229;&#156;&#134; 600" d="M51.4035 73.8967C71.5966 73.8967 87.9662 57.527 87.9662 37.334C87.9662 17.141 71.5966 0.771301 51.4035 0.771301C31.2105 0.771301 14.8408 17.141 14.8408 37.334C14.8408 57.527 31.2105 73.8967 51.4035 73.8967Z" fill="url(#paint0_linear_1079_3622)"/>
<g id="&#231;&#187;&#132; 29113">
<path id="&#232;&#183;&#175;&#229;&#190;&#132; 57642" d="M28.1101 60.9122C26.9844 60.9161 25.8829 60.5861 24.9447 59.964C24.0066 59.3419 23.274 58.4556 22.8396 57.4171C22.4051 56.3787 22.2884 55.2347 22.5041 54.1299C22.7197 53.0251 23.2582 52.009 24.0513 51.2102C24.8444 50.4114 25.8566 49.8657 26.9598 49.6421C28.063 49.4186 29.2078 49.5271 30.2493 49.9541C31.2909 50.3811 32.1824 51.1073 32.8112 52.041C33.44 52.9746 33.7779 54.0738 33.782 55.1994V55.2254C33.7778 56.7293 33.1792 58.1705 32.1167 59.2349C31.0542 60.2992 29.614 60.9004 28.1101 60.9072V60.9122ZM28.1101 52.6018C27.592 52.597 27.0841 52.7459 26.6507 53.0298C26.2172 53.3137 25.8778 53.7197 25.6752 54.1966C25.4727 54.6735 25.4161 55.1997 25.5128 55.7088C25.6094 56.2178 25.8549 56.6867 26.2181 57.0561C26.5814 57.4256 27.046 57.679 27.5533 57.7843C28.0606 57.8896 28.5878 57.842 29.068 57.6476C29.5483 57.4531 29.9601 57.1206 30.2513 56.6921C30.5425 56.2636 30.7 55.7583 30.7039 55.2402V55.2254C30.7053 54.5343 30.4334 53.8707 29.9475 53.3792C29.4616 52.8878 28.8011 52.6084 28.1101 52.6018ZM2.102 56.7669C1.69448 56.7669 1.30365 56.605 1.01548 56.3168C0.72732 56.0287 0.56543 55.6378 0.56543 55.2303C0.57491 47.9284 3.48013 40.9283 8.64384 35.7655C13.8075 30.6028 20.8081 27.6988 28.1101 27.6906C28.5177 27.6906 28.9087 27.8526 29.197 28.1409C29.4853 28.4291 29.6472 28.8201 29.6472 29.2278C29.6472 29.6355 29.4853 30.0265 29.197 30.3148C28.9087 30.6031 28.5177 30.765 28.1101 30.765C21.6246 30.7719 15.4065 33.3503 10.8194 37.9349C6.23217 42.5196 3.65027 48.7362 3.63981 55.2217C3.64095 55.4243 3.602 55.6251 3.52522 55.8126C3.44843 56.0001 3.33532 56.1706 3.19239 56.3142C3.04946 56.4578 2.87954 56.5718 2.6924 56.6494C2.50527 56.7271 2.30462 56.7671 2.102 56.7669Z" fill="#0AE5D5" stroke="#0AE5D5" strokeWidth="0.199081"/>
<path id="&#232;&#183;&#175;&#229;&#190;&#132; 57643" d="M20.0958 40.5915C19.7919 40.5915 19.4948 40.5013 19.2421 40.3324C18.9895 40.1634 18.7926 39.9234 18.6763 39.6425C18.5601 39.3617 18.5298 39.0527 18.5892 38.7547C18.6486 38.4566 18.7951 38.1828 19.0101 37.968L28.8421 28.1409C29.132 27.8612 29.52 27.7066 29.9228 27.7102C30.3255 27.7138 30.7108 27.8753 30.9956 28.1601C31.2803 28.4449 31.4419 28.8302 31.4455 29.2329C31.4491 29.6357 31.2945 30.0237 31.0148 30.3136L21.1828 40.1456C20.8937 40.4323 20.5028 40.5926 20.0958 40.5915Z" fill="#0AE5D5" stroke="#0AE5D5" strokeWidth="0.199081"/>
<path id="&#232;&#183;&#175;&#229;&#190;&#132; 57644" d="M29.9277 30.7649C29.5203 30.7644 29.1298 30.6022 28.8419 30.3141L19.0099 20.482C18.8419 20.346 18.7046 20.1761 18.6068 19.9834C18.509 19.7907 18.4529 19.5796 18.4423 19.3637C18.4316 19.1479 18.4666 18.9322 18.545 18.7308C18.6234 18.5295 18.7433 18.3469 18.897 18.195C19.0507 18.0431 19.2348 17.9253 19.4371 17.8494C19.6394 17.7735 19.8554 17.7411 20.0711 17.7543C20.2868 17.7676 20.4973 17.8261 20.6888 17.9263C20.8803 18.0264 21.0486 18.1657 21.1826 18.3353L31.0146 28.1414C31.2296 28.3562 31.3761 28.63 31.4355 28.9281C31.4949 29.2261 31.4646 29.5351 31.3483 29.8159C31.2321 30.0968 31.0352 30.3368 30.7826 30.5057C30.5299 30.6747 30.2328 30.7649 29.9289 30.7649H29.9277ZM28.1799 82.7588C27.7722 82.7588 27.3812 82.5969 27.0929 82.3086C26.8046 82.0203 26.6427 81.6293 26.6427 81.2216C26.6427 80.8139 26.8046 80.4229 27.0929 80.1347C27.3812 79.8464 27.7722 79.6844 28.1799 79.6844C34.6653 79.6776 40.8834 77.0991 45.4706 72.5145C50.0578 67.9299 52.6397 61.7132 52.6501 55.2278C52.6501 54.8201 52.8121 54.4291 53.1003 54.1408C53.3886 53.8525 53.7796 53.6906 54.1873 53.6906C54.595 53.6906 54.986 53.8525 55.2743 54.1408C55.5625 54.4291 55.7245 54.8201 55.7245 55.2278C55.7127 62.5282 52.8065 69.526 47.643 74.687C42.4796 79.8479 35.4803 82.7506 28.1799 82.7588Z" fill="#0AE5D5" stroke="#0AE5D5" strokeWidth="0.199081"/>
<path id="&#232;&#183;&#175;&#229;&#190;&#132; 57645" d="M26.3626 82.7573C26.0589 82.7566 25.7623 82.666 25.51 82.497C25.2577 82.328 25.0611 82.0881 24.945 81.8075C24.8289 81.5269 24.7984 81.2182 24.8575 80.9203C24.9166 80.6225 25.0625 80.3488 25.2769 80.1337L35.1089 70.3016C35.3977 70.0135 35.7891 69.8519 36.197 69.8524C36.605 69.8529 36.996 70.0153 37.2841 70.3041C37.5722 70.5929 37.7338 70.9843 37.7334 71.3922C37.7329 71.8001 37.5704 72.1912 37.2816 72.4793L27.4496 82.3064C27.1614 82.5949 26.7704 82.757 26.3626 82.7573Z" fill="#0AE5D5" stroke="#0AE5D5" strokeWidth="0.199081"/>
<path id="&#232;&#183;&#175;&#229;&#190;&#132; 57646" d="M36.1953 92.5913C35.7879 92.5907 35.3974 92.4286 35.1095 92.1404L25.2775 82.3084C24.9978 82.0185 24.8431 81.6304 24.8467 81.2277C24.8503 80.825 25.0119 80.4397 25.2967 80.1549C25.5815 79.8701 25.9668 79.7085 26.3695 79.7049C26.7722 79.7013 27.1603 79.856 27.4502 80.1357L37.2822 89.9677C37.4972 90.1826 37.6437 90.4563 37.7031 90.7544C37.7625 91.0524 37.7322 91.3614 37.6159 91.6423C37.4997 91.9231 37.3028 92.1632 37.0502 92.3321C36.7975 92.501 36.4992 92.5912 36.1953 92.5913Z" fill="#0AE5D5" stroke="#0AE5D5" strokeWidth="0.199081"/>
</g>
</g>
<defs>
<linearGradient id="paint0_linear_1079_3622" x1="51.4035" y1="28.2665" x2="106.906" y2="-61.3853" gradientUnits="userSpaceOnUse">
<stop stop-color="#0AE5D5" stop-opacity="0.098"/>
<stop offset="1" stop-color="#0AE5D5"/>
</linearGradient>
</defs>
</svg>
