<svg width="93" height="93" viewBox="0 0 93 93" fill="none" xmlns="http://www.w3.org/2000/svg">
<g id="&#231;&#187;&#132; 29104">
<path id="&#232;&#183;&#175;&#229;&#190;&#132; 57627" d="M17.6553 49.5444C17.655 55.2684 19.3521 60.8639 22.532 65.6234C25.7119 70.3829 30.2317 74.0925 35.5199 76.2832C40.8081 78.474 46.6272 79.0473 52.2413 77.9309C57.8553 76.8144 63.0123 74.0583 67.0599 70.011C71.1076 65.9637 73.8642 60.807 74.9811 55.193C76.0981 49.579 75.5252 43.7599 73.3349 38.4715C71.1447 33.1831 67.4354 28.663 62.6762 25.4827C57.917 22.3024 52.3216 20.6048 46.5976 20.6045C42.797 20.6044 39.0336 21.3528 35.5223 22.8071C32.0109 24.2613 28.8204 26.393 26.1328 29.0803C23.4453 31.7676 21.3133 34.9579 19.8588 38.4692C18.4042 41.9804 17.6554 45.7438 17.6553 49.5444Z" fill="url(#paint0_linear_1079_3649)"/>
<path id="&#232;&#183;&#175;&#229;&#190;&#132; 57628" d="M2.50201 50.8094C1.98839 50.8094 1.49582 50.6053 1.13264 50.2422C0.769462 49.879 0.56543 49.3864 0.56543 48.8728C0.56543 48.3592 0.769462 47.8666 1.13264 47.5034C1.49582 47.1402 1.98839 46.9362 2.50201 46.9362H12.022C12.5356 46.935 13.0286 47.138 13.3926 47.5003C13.7566 47.8627 13.9618 48.3548 13.963 48.8684C13.9641 49.382 13.7612 49.875 13.3989 50.239C13.0365 50.603 12.5444 50.8082 12.0308 50.8094H2.50201Z" fill="#0AE5D5"/>
<path id="&#232;&#183;&#175;&#229;&#190;&#132; 57629" d="M17.6214 27.5548C17.3677 27.5562 17.1161 27.5072 16.8814 27.4107C16.6467 27.3142 16.4335 27.172 16.2541 26.9925L9.52041 20.2601C9.15793 19.8978 8.95422 19.4063 8.9541 18.8938C8.95398 18.3813 9.15746 17.8897 9.51978 17.5273C9.88209 17.1648 10.3736 16.9611 10.8861 16.961C11.3986 16.9608 11.8901 17.1643 12.2526 17.5266L18.9901 24.2591C19.2608 24.5288 19.4453 24.8728 19.5201 25.2476C19.5949 25.6223 19.5567 26.0108 19.4103 26.3638C19.264 26.7168 19.016 27.0184 18.698 27.2302C18.3799 27.442 18.0061 27.5546 17.624 27.5536L17.6214 27.5548Z" fill="#0AE5D5"/>
<path id="&#232;&#183;&#175;&#229;&#190;&#132; 57630" d="M81.1636 50.8094C80.9093 50.8088 80.6576 50.7581 80.4229 50.6603C80.1881 50.5624 79.975 50.4193 79.7955 50.239C79.4332 49.875 79.2303 49.382 79.2315 48.8684C79.2326 48.3548 79.4378 47.8627 79.8018 47.5003C80.1658 47.138 80.6588 46.935 81.1724 46.9362H90.6798C91.1934 46.9362 91.686 47.1402 92.0492 47.5034C92.4124 47.8666 92.6164 48.3592 92.6164 48.8728C92.6164 49.3864 92.4124 49.879 92.0492 50.2422C91.686 50.6053 91.1934 50.8094 90.6798 50.8094H81.1636Z" fill="#0AE5D5"/>
<path id="&#232;&#183;&#175;&#229;&#190;&#132; 57631" d="M75.5721 27.5554C75.1898 27.5564 74.8159 27.4438 74.4978 27.2318C74.1796 27.0198 73.9317 26.718 73.7854 26.3648C73.6391 26.0116 73.6011 25.6229 73.6763 25.2481C73.7514 24.8733 73.9362 24.5292 74.2073 24.2596L80.941 17.526C81.3048 17.1664 81.7956 16.9648 82.3071 16.9648C82.8185 16.9648 83.3094 17.1664 83.6732 17.526C84.0349 17.8888 84.238 18.3803 84.238 18.8927C84.238 19.4051 84.0349 19.8966 83.6732 20.2594L76.9382 26.9944C76.7587 27.1733 76.5456 27.3149 76.3112 27.4112C76.0767 27.5075 75.8256 27.5565 75.5721 27.5554Z" fill="#0AE5D5"/>
<path id="&#232;&#183;&#175;&#229;&#190;&#132; 57632" d="M46.5958 14.2113C46.0825 14.2106 45.5905 14.0064 45.2276 13.6435C44.8647 13.2806 44.6605 12.7886 44.6598 12.2753V2.75659C44.6532 2.49829 44.6984 2.24129 44.7927 2.00072C44.887 1.76016 45.0285 1.54091 45.2089 1.35589C45.3892 1.17087 45.6048 1.02382 45.8429 0.923424C46.081 0.823025 46.3367 0.771301 46.5951 0.771301C46.8535 0.771301 47.1093 0.823025 47.3474 0.923424C47.5854 1.02382 47.801 1.17087 47.9814 1.35589C48.1617 1.54091 48.3033 1.76016 48.3975 2.00072C48.4918 2.24129 48.537 2.49829 48.5304 2.75659V12.2766C48.5275 12.7888 48.3227 13.2791 47.9605 13.6413C47.5983 14.0035 47.108 14.2083 46.5958 14.2113Z" fill="#0AE5D5"/>
<g id="&#231;&#187;&#132; 29103">
<path id="&#232;&#183;&#175;&#229;&#190;&#132; 57634" d="M56.9514 82.1962H36.2422V70.2145C36.2462 68.6387 36.8739 67.1285 37.9882 66.0143C39.1025 64.9 40.6126 64.2722 42.1884 64.2683H51.0065C52.5824 64.2719 54.0927 64.8996 55.207 66.0139C56.3214 67.1282 56.949 68.6386 56.9527 70.2145L56.9514 82.1962Z" fill="url(#paint1_linear_1079_3649)"/>
<path id="&#232;&#183;&#175;&#229;&#190;&#132; 57635" d="M51.9348 92.5913H41.2588C40.5998 92.5913 39.9473 92.4614 39.3384 92.2092C38.7296 91.9569 38.1765 91.5872 37.7106 91.1211C37.2448 90.655 36.8753 90.1016 36.6233 89.4927C36.3714 88.8838 36.2419 88.2312 36.2422 87.5722V83.104H56.9514V87.5722C56.9508 88.9027 56.4221 90.1785 55.4815 91.1196C54.5409 92.0606 53.2653 92.5899 51.9348 92.5913Z" fill="url(#paint2_linear_1079_3649)"/>
</g>
</g>
<defs>
<linearGradient id="paint0_linear_1079_3649" x1="46.5964" y1="49.5456" x2="46.5964" y2="-76.7534" gradientUnits="userSpaceOnUse">
<stop stop-color="#0AE5D5" stop-opacity="0.098"/>
<stop offset="1" stop-color="#0AE5D5"/>
</linearGradient>
<linearGradient id="paint1_linear_1079_3649" x1="46.5974" y1="69.6108" x2="46.5974" y2="116.367" gradientUnits="userSpaceOnUse">
<stop stop-color="#0AE5D5" stop-opacity="0.098"/>
<stop offset="1" stop-color="#0AE5D5"/>
</linearGradient>
<linearGradient id="paint2_linear_1079_3649" x1="46.5968" y1="69.6036" x2="46.5968" y2="103.217" gradientUnits="userSpaceOnUse">
<stop stop-color="#0AE5D5" stop-opacity="0.098"/>
<stop offset="1" stop-color="#0AE5D5"/>
</linearGradient>
</defs>
</svg>
