<svg width="94" height="93" viewBox="0 0 94 93" fill="none" xmlns="http://www.w3.org/2000/svg">
<g id="&#231;&#187;&#132; 29102">
<path id="&#230;&#164;&#173;&#229;&#156;&#134; 600" d="M54.0952 78.9831C75.6928 78.9831 93.2011 61.4748 93.2011 39.8772C93.2011 18.2796 75.6928 0.771301 54.0952 0.771301C32.4976 0.771301 14.9893 18.2796 14.9893 39.8772C14.9893 61.4748 32.4976 78.9831 54.0952 78.9831Z" fill="url(#paint0_linear_1079_3638)"/>
<path id="&#232;&#183;&#175;&#229;&#190;&#132; 57626" d="M39.6978 92.5913C38.6143 92.5931 37.5469 92.3291 36.5892 91.8224C35.0978 91.0388 33.9566 89.7217 33.3935 88.1339L33.1504 87.4535H15.1055C9.55684 87.4535 5.48389 86.0069 3.01739 83.1586C1.46657 81.3306 0.599739 79.0201 0.56543 76.6231V58.0841C0.56543 56.7176 1.10826 55.4071 2.0745 54.4409C3.04074 53.4747 4.35125 52.9318 5.71772 52.9318H6.62004L6.89218 52.0427C7.62744 44.6726 11.0743 37.8384 16.564 32.8663C22.0537 27.8941 29.1947 25.1385 36.6014 25.1343C44.0081 25.13 51.1523 27.8773 56.6477 32.8431C62.1432 37.8089 65.5979 44.6391 66.3417 52.0084L66.4329 52.9331H67.3577C68.0462 52.9161 68.7313 53.0366 69.3727 53.2875C70.0141 53.5385 70.5991 53.9149 71.0933 54.3947C71.5874 54.8744 71.9809 55.448 72.2507 56.0817C72.5205 56.7155 72.6612 57.3967 72.6645 58.0854V76.6244C72.6645 77.3011 72.5312 77.971 72.2723 78.5961C72.0134 79.2212 71.6339 79.7892 71.1554 80.2677C70.677 80.7461 70.109 81.1256 69.4839 81.3845C68.8588 81.6435 68.1888 81.7767 67.5122 81.7767H61.3281C59.9623 81.7746 58.653 81.2311 57.6872 80.2653C56.7215 79.2996 56.178 77.9903 56.1759 76.6244V58.0868C56.1715 56.746 56.6915 55.4567 57.6248 54.494C58.5581 53.5314 59.8307 52.9717 61.1709 52.9345L62.2978 52.9001L62.1578 51.7825C61.3748 45.5601 58.3474 39.8375 53.6442 35.689C48.9409 31.5405 42.8851 29.2514 36.6137 29.2514C30.3422 29.2514 24.2864 31.5405 19.5831 35.689C14.8799 39.8375 11.8525 45.5601 11.0695 51.7825L10.9374 52.9028L12.0603 52.9358C13.4014 52.9703 14.6754 53.5292 15.609 54.4925C16.5426 55.4557 17.0614 56.7466 17.0541 58.0881V72.7219C17.0405 73.2603 16.817 73.7721 16.4314 74.1481C16.0457 74.5241 15.5285 74.7346 14.9899 74.7346C14.4513 74.7346 13.934 74.5241 13.5484 74.1481C13.1627 73.7721 12.9393 73.2603 12.9256 72.7219V59.643C12.9253 58.9624 12.655 58.3098 12.174 57.8283C11.693 57.3468 11.0406 57.0758 10.3601 57.0748H7.26209C6.58001 57.0755 5.92611 57.3469 5.44406 57.8295C4.962 58.312 4.69123 58.9662 4.69123 59.6483L4.69783 76.6377C4.72632 78.0417 5.23448 79.3937 6.13783 80.4688C7.81431 82.399 10.7485 83.3356 15.1068 83.3356H33.4859L33.7753 82.7887C34.3426 81.7055 35.196 80.7985 36.2427 80.1663C37.2895 79.5342 38.4895 79.2011 39.7123 79.2032C40.8648 79.2046 41.9974 79.5032 43.0008 80.0703C44.0041 80.6374 44.8442 81.4537 45.4398 82.4403C46.0354 83.427 46.3664 84.5506 46.4008 85.7026C46.4352 86.8546 46.1718 87.9959 45.6361 89.0164C45.0672 90.0978 44.213 91.0028 43.1661 91.633C42.1192 92.2633 40.9197 92.5947 39.6978 92.5913ZM39.7057 81.7781C38.7542 81.7776 37.8319 82.1071 37.0961 82.7105C36.3603 83.3138 35.8565 84.1536 35.6705 85.0868C35.4845 86.02 35.6279 86.9888 36.0762 87.8281C36.5244 88.6674 37.2499 89.3253 38.1289 89.6897C39.0079 90.0541 39.986 90.1024 40.8967 89.8264C41.8073 89.5504 42.594 88.9672 43.1228 88.1761C43.6516 87.3851 43.8897 86.4351 43.7966 85.4881C43.7035 84.5412 43.2849 83.6558 42.6121 82.9829C41.8409 82.2125 40.7958 81.7793 39.7057 81.7781ZM60.3056 75.0735C60.3046 75.4112 60.3701 75.7458 60.4986 76.0581C60.627 76.3704 60.8158 76.6544 61.0541 76.8937C61.2924 77.133 61.5756 77.3229 61.8874 77.4526C62.1992 77.5823 62.5335 77.6493 62.8712 77.6496H65.9718C66.6538 77.6482 67.3074 77.3763 67.7891 76.8936C68.2708 76.4109 68.5414 75.7568 68.5414 75.0748L68.5348 59.6338C68.5358 59.2963 68.4702 58.9619 68.3419 58.6498C68.2135 58.3377 68.0248 58.054 67.7866 57.815C67.5484 57.5759 67.2654 57.3862 66.9537 57.2567C66.6421 57.1272 66.308 57.0604 65.9705 57.0603H62.8738C62.192 57.0613 61.5384 57.3329 61.0566 57.8154C60.5749 58.2979 60.3043 58.9519 60.3043 59.6338V75.0748L60.3056 75.0735Z" fill="#0AE5D5"/>
</g>
<defs>
<linearGradient id="paint0_linear_1079_3638" x1="54.0952" y1="30.1789" x2="113.458" y2="-65.7087" gradientUnits="userSpaceOnUse">
<stop stop-color="#0AE5D5" stop-opacity="0.098"/>
<stop offset="1" stop-color="#0AE5D5"/>
</linearGradient>
</defs>
</svg>
